HIERARCHY
ROOT Hips
{
	OFFSET 0.00000 0.00000 0.00000
	CHANNELS 6 Xposition Yposition Zposition Zrotation Yrotation Xrotation 
	JOINT LHipJoint
	{
		OFFSET 0 0 0
		CHANNELS 3 Zrotation Yrotation Xrotation
		JOINT LeftHip
		{
			OFFSET 1.54859 -1.61379 0.86856
			CHANNELS 3 Zrotation Yrotation Xrotation
			JOINT LeftKnee
			{
				OFFSET 2.25087 -6.18423 0.00000
				CHANNELS 3 Zrotation Yrotation Xrotation
				JOINT LeftAnkle
				{
					OFFSET 2.40328 -6.60297 0.00000
					CHANNELS 3 Zrotation Yrotation Xrotation
					JOINT LeftToe
					{
						OFFSET 0.17435 -0.47901 2.02453
						CHANNELS 3 Zrotation Yrotation Xrotation
						End Site
						{
							OFFSET 0.00000 -0.00000 1.04844
						}
					}
				}
			}
		}
	}
	JOINT RHipJoint
	{
		OFFSET 0 0 0
		CHANNELS 3 Zrotation Yrotation Xrotation
		JOINT RightHip
		{
			OFFSET -1.54669 -1.61379 0.86856
			CHANNELS 3 Zrotation Yrotation Xrotation
			JOINT RightKnee
			{
				OFFSET -2.28132 -6.26789 0.00000
				CHANNELS 3 Zrotation Yrotation Xrotation
				JOINT RightAnkle
				{
					OFFSET -2.51636 -6.91365 0.00000
					CHANNELS 3 Zrotation Yrotation Xrotation
					JOINT RightToe
					{
						OFFSET -0.15124 -0.41552 2.21090
						CHANNELS 3 Zrotation Yrotation Xrotation
						End Site
						{
							OFFSET -0.00000 -0.00000 1.13399
						}
					}
				}
			}
		}
	}
	JOINT lowerback
	{
		OFFSET 0 0 0
		CHANNELS 3 Zrotation Yrotation Xrotation
		JOINT Chest
		{
			OFFSET -0.04287 2.26161 -0.25690
			CHANNELS 3 Zrotation Yrotation Xrotation
			JOINT Chest2
			{
				OFFSET 0.02248 2.28395 -0.10140
				CHANNELS 3 Zrotation Yrotation Xrotation
				JOINT lowerneck
				{
					OFFSET 0 0 0
					CHANNELS 3 Zrotation Yrotation Xrotation
					JOINT Neck
					{
						OFFSET -0.11644 1.38496 0.11345
						CHANNELS 3 Zrotation Yrotation Xrotation
						JOINT Head
						{
							OFFSET 0.29383 1.36600 0.06642
							CHANNELS 3 Zrotation Yrotation Xrotation
							End Site
							{
								OFFSET 0.11075 1.41395 -0.00294
							}
						}
					}
				}
				JOINT LeftCollar
				{
					OFFSET 0 0 0
					CHANNELS 3 Zrotation Yrotation Xrotation
					JOINT LeftShoulder
					{
						OFFSET 3.51628 0.59542 -0.30346
CHANNELS 3 Zrotation Xrotation Yrotation
						JOINT LeftElbow
						{
OFFSET 0 -4.764050 0.000000
CHANNELS 3 Zrotation Xrotation Yrotation
							JOINT LeftWrist
							{
OFFSET 0 -3.137590 -0.000000
CHANNELS 3 Zrotation Xrotation Yrotation
								JOINT lhand
								{
									OFFSET 0 0 0
CHANNELS 3 Zrotation Xrotation Yrotation
									JOINT LFingers
									{
OFFSET 0 -0.732260 -0.000000
CHANNELS 3 Zrotation Xrotation Yrotation
										End Site
										{
OFFSET 0 -0.590370 -0.000000
										}
									}
								}
								JOINT LThumb
								{
OFFSET 0 0.000000 0.000000
CHANNELS 3 Zrotation Xrotation Yrotation
									End Site
									{
OFFSET 0 -0.599380 0.599380
									}
								}
							}
						}
					}
				}
				JOINT RightCollar
				{
					OFFSET 0 0 0
					CHANNELS 3 Zrotation Yrotation Xrotation
					JOINT RightShoulder
					{
						OFFSET -3.30990 0.84213 -0.36430
CHANNELS 3 Zrotation Xrotation Yrotation
						JOINT RightElbow
						{
OFFSET 0 -5.101610 -0.000000
CHANNELS 3 Zrotation Xrotation Yrotation
							JOINT RightWrist
							{
OFFSET 0 -3.232670 -0.000000
CHANNELS 3 Zrotation Xrotation Yrotation
								JOINT rhand
								{
									OFFSET 0 0 0
CHANNELS 3 Zrotation Xrotation Yrotation
									JOINT RFingers
									{
OFFSET 0 -0.702000 -0.000000
CHANNELS 3 Zrotation Xrotation Yrotation
										End Site
										{
OFFSET 0 -0.565970 -0.000000
										}
									}
								}
								JOINT RThumb
								{
OFFSET 0 0.000000 0.000000
CHANNELS 3 Zrotation Xrotation Yrotation
									End Site
									{
OFFSET 0 -0.574610 0.574610
									}
								}
							}
						}
					}
				}
			}
		}
	}
}
MOTION
Frames: 10
Frame Time: 0.008333333333333333
-18.585643 13.563545 8.733215 350.364626 67.802361 407.905529 0.000000 0.000000 0.000000 -25.717163 -17.484160 -114.793860 21.009546 19.962530 92.955012 0.021828 -3.538039 -3.484894 1.160860 -6.839014 -19.239758 0.000000 0.000000 0.000000 13.691453 -7.867817 -62.319321 -8.561759 -16.507381 54.546577 -2.271143 3.294168 -27.681261 -6.344550 14.753929 -46.348964 1.154569 3.972916 -12.320973 0.669403 5.112083 0.693834 1.024293 2.536504 7.694365 -10.762567 -2.205599 -5.472437 13.175440 0.371154 -24.509902 6.167083 0.639098 -6.428315 0.000000 0.000000 0.000000 10.117175 29.706291 -34.787111 13.293859 -21.715956 2.561238 20.325384 -1.063392 -33.506120 0.000000 0.000000 0.000000 -7.125000 0.000000 0.000000 -15.580847 64.557879 7.459033 0.000000 0.000000 0.000000 -14.049148 -31.929749 5.368786 -38.168101 -46.896306 -17.104366 -28.830368 -42.637064 -33.905596 0.000000 0.000000 0.000000 7.125000 0.000000 0.000000 2.056152 -7.496784 2.304201
-18.425573 13.590132 8.804729 350.027062 68.080166 407.483496 0.000000 0.000000 0.000000 -26.162888 -17.647437 -114.772264 20.393230 19.991602 91.149569 0.001029 -4.262986 -3.060415 1.119305 -6.719105 -18.886450 0.000000 0.000000 0.000000 13.751260 -7.758262 -60.639217 -8.174023 -16.242252 53.181322 -2.150020 3.271450 -26.912616 -6.390910 14.796537 -46.530721 0.347885 3.660339 -12.252526 1.059867 4.788752 0.665076 1.814138 2.340920 7.515115 -10.992595 -1.989870 -5.377844 13.096461 0.627450 -24.349878 6.170898 0.781302 -6.427634 0.000000 0.000000 0.000000 9.091665 30.444080 -33.853072 13.178448 -21.548058 2.518548 19.904248 -1.024496 -33.367196 0.000000 0.000000 0.000000 -7.125000 0.000000 0.000000 -15.950226 64.308474 7.550985 0.000000 0.000000 0.000000 -13.828931 -30.777390 5.910317 -39.818756 -47.950501 -18.308042 -29.421831 -45.287187 -34.658505 0.000000 0.000000 0.000000 7.125000 0.000000 0.000000 1.886782 -8.442698 2.143605
-18.261488 13.620487 8.876181 349.782770 68.316277 407.199826 0.000000 0.000000 0.000000 -26.804547 -17.821462 -114.625306 19.742816 19.981203 89.247149 -0.025885 -5.020177 -2.694091 1.050108 -6.509908 -18.273617 0.000000 0.000000 0.000000 13.697967 -7.543637 -58.963961 -7.789005 -15.948987 51.777770 -2.007000 3.247250 -25.949861 -6.466951 14.865428 -46.826968 -0.469824 3.349832 -12.254743 1.384978 4.472587 0.626961 2.555463 2.152100 7.400691 -11.084692 -1.582716 -5.568040 12.579969 1.040950 -23.637264 5.975197 1.016036 -6.230556 0.000000 0.000000 0.000000 8.073475 31.072167 -32.794319 13.066280 -21.383897 2.477679 19.647913 -0.907893 -33.259959 0.000000 0.000000 0.000000 -7.125000 0.000000 0.000000 -16.151776 64.136590 7.583175 0.000000 0.000000 0.000000 -13.445519 -29.704684 6.110262 -41.339293 -48.801968 -19.454304 -30.016352 -46.790711 -34.955708 0.000000 0.000000 0.000000 7.125000 0.000000 0.000000 1.634271 -8.924631 1.865708
-18.097403 13.650842 8.947634 349.538477 68.552388 406.916157 0.000000 0.000000 0.000000 -27.446206 -17.995486 -114.478348 19.092403 19.970805 87.344729 -0.052800 -5.777368 -2.327768 0.980911 -6.300712 -17.660784 0.000000 0.000000 0.000000 13.644674 -7.329011 -57.288706 -7.403986 -15.655722 50.374218 -1.863980 3.223051 -24.987105 -6.542991 14.934319 -47.123215 -1.287534 3.039325 -12.256961 1.710089 4.156422 0.588845 3.296789 1.963280 7.286268 -11.176789 -1.175562 -5.758237 12.063476 1.454449 -22.924650 5.779495 1.250771 -6.033478 0.000000 0.000000 0.000000 7.055286 31.700254 -31.735567 12.954112 -21.219736 2.436811 19.391578 -0.791291 -33.152723 0.000000 0.000000 0.000000 -7.125000 0.000000 0.000000 -16.353327 63.964707 7.615365 0.000000 0.000000 0.000000 -13.062106 -28.631978 6.310207 -42.859830 -49.653435 -20.600566 -30.610872 -48.294236 -35.252911 0.000000 0.000000 0.000000 7.125000 0.000000 0.000000 1.381759 -9.406563 1.587812
-17.931269 13.679346 9.018646 349.338699 68.776797 406.640200 0.000000 0.000000 0.000000 -28.165786 -18.159396 -114.217108 18.438177 19.929048 85.425913 -0.083526 -6.509438 -1.990643 0.892211 -6.006850 -16.808324 0.000000 0.000000 0.000000 13.556651 -7.097395 -55.575988 -7.027761 -15.345708 48.962292 -1.716906 3.189309 -23.935166 -6.636198 15.016939 -47.483083 -1.845034 2.784549 -12.218939 1.792091 3.890191 0.547071 3.643855 1.812738 7.188680 -11.095347 -0.920859 -5.732583 12.002946 1.773874 -22.679501 5.726283 1.399805 -6.001125 0.000000 0.000000 0.000000 6.454427 32.248326 -30.843148 12.857282 -21.077567 2.401827 19.229341 -0.783704 -33.067986 0.000000 0.000000 0.000000 -7.125000 0.000000 0.000000 -16.465893 63.840004 7.621882 0.000000 0.000000 0.000000 -12.273042 -27.532210 6.259044 -44.272299 -50.387226 -21.682216 -30.709853 -48.438381 -35.178861 0.000000 0.000000 0.000000 7.125000 0.000000 0.000000 1.311734 -9.357784 1.507408
-17.763629 13.706490 9.089334 349.171633 68.992608 406.369912 0.000000 0.000000 0.000000 -28.942628 -18.315873 -113.871888 17.781149 19.864247 83.495049 -0.117054 -7.223046 -1.674974 0.789180 -5.650772 -15.779774 0.000000 0.000000 0.000000 13.443107 -6.853294 -53.835741 -6.657996 -15.023388 47.544212 -1.566852 3.148555 -22.817692 -6.742019 15.109648 -47.889701 -2.211319 2.570726 -12.151348 1.695445 3.660656 0.502609 3.701201 1.690325 7.103465 -10.886380 -0.778183 -5.548313 12.277478 2.024169 -22.777867 5.777780 1.485861 -6.089820 0.000000 0.000000 0.000000 6.160245 32.737598 -30.072959 12.771722 -20.951560 2.371166 19.136250 -0.856227 -32.999783 0.000000 0.000000 0.000000 -7.125000 0.000000 0.000000 -16.513070 63.749971 7.609534 0.000000 0.000000 0.000000 -11.185884 -26.412557 6.023353 -45.605354 -51.034543 -22.716386 -30.444687 -47.583588 -34.831996 0.000000 0.000000 0.000000 7.125000 0.000000 0.000000 1.375808 -8.919014 1.572132
-17.595988 13.733633 9.160022 349.004566 69.208418 406.099623 0.000000 0.000000 0.000000 -29.719469 -18.472350 -113.526668 17.124122 19.799447 81.564185 -0.150582 -7.936654 -1.359306 0.686149 -5.294694 -14.751223 0.000000 0.000000 0.000000 13.329562 -6.609193 -52.095494 -6.288232 -14.701068 46.126132 -1.416797 3.107802 -21.700218 -6.847841 15.202356 -48.296319 -2.577605 2.356904 -12.083756 1.598798 3.431121 0.458147 3.758546 1.567911 7.018249 -10.677413 -0.635507 -5.364042 12.552011 2.274463 -22.876234 5.829276 1.571918 -6.178514 0.000000 0.000000 0.000000 5.866062 33.226871 -29.302769 12.686163 -20.825552 2.340505 19.043159 -0.928750 -32.931580 0.000000 0.000000 0.000000 -7.125000 0.000000 0.000000 -16.560246 63.659938 7.597185 0.000000 0.000000 0.000000 -10.098727 -25.292904 5.787663 -46.938409 -51.681860 -23.750556 -30.179521 -46.728794 -34.485132 0.000000 0.000000 0.000000 7.125000 0.000000 0.000000 1.439882 -8.480244 1.636856
-17.428128 13.760997 9.228029 348.652391 69.464556 405.506496 0.000000 0.000000 0.000000 -30.521102 -18.533408 -113.000636 16.483145 19.684256 79.659435 -0.186755 -8.553999 -1.066850 0.675122 -5.254036 -14.634479 0.000000 0.000000 0.000000 13.277133 -6.306401 -50.165143 -5.930515 -14.345913 44.674043 -1.258039 2.965202 -20.362230 -6.967656 15.303292 -48.749582 -2.979589 2.137829 -11.940542 1.642159 3.186454 0.528901 3.985097 1.430476 7.011558 -10.566582 -0.472778 -5.397972 12.590162 2.504741 -22.749128 5.811210 1.674649 -6.159963 0.000000 0.000000 0.000000 5.238280 33.335643 -28.191929 12.484947 -20.526704 2.270288 19.065393 -0.744545 -32.834546 0.000000 0.000000 0.000000 -7.125000 0.000000 0.000000 -16.451916 63.573101 7.513144 0.000000 0.000000 0.000000 -9.255516 -24.268413 5.622527 -48.370997 -52.289694 -24.886425 -30.293754 -46.480305 -33.895864 0.000000 0.000000 0.000000 7.125000 0.000000 0.000000 1.250387 -7.897317 1.413340
-17.260258 13.788370 9.295926 348.292643 69.722344 404.900162 0.000000 0.000000 0.000000 -31.323749 -18.590563 -112.467207 15.842824 19.567003 77.755753 -0.223035 -9.167405 -0.775343 0.667858 -5.226280 -14.555037 0.000000 0.000000 0.000000 13.227205 -6.001208 -48.227016 -5.573290 -13.989414 43.220562 -1.098924 2.818435 -19.015221 -7.088044 15.404564 -49.204753 -3.383035 1.918539 -11.794235 1.691246 2.941168 0.604368 4.218570 1.292426 7.008079 -10.459767 -0.309229 -5.440828 12.618644 2.734199 -22.612799 5.790298 1.778062 -6.137025 0.000000 0.000000 0.000000 4.596850 33.428848 -27.067153 12.279000 -20.220784 2.198453 19.092346 -0.549838 -32.736332 0.000000 0.000000 0.000000 -7.125000 0.000000 0.000000 -16.337225 63.486395 7.426170 0.000000 0.000000 0.000000 -8.422285 -23.247814 5.460277 -49.807657 -52.895913 -26.026455 -30.423508 -46.256619 -33.296679 0.000000 0.000000 0.000000 7.125000 0.000000 0.000000 1.050518 -7.308493 1.178032
-17.092916 13.815835 9.362227 347.808790 69.994388 404.091382 0.000000 0.000000 0.000000 -32.098277 -18.586482 -111.856507 15.219253 19.435546 75.890925 -0.249636 -9.542071 -0.342072 0.577308 -4.616800 -12.852929 0.000000 0.000000 0.000000 13.214046 -5.678553 -46.202582 -5.226629 -13.627100 41.777777 -0.939387 2.628621 -17.558666 -7.202668 15.499796 -49.636053 -3.649516 1.731905 -11.559326 1.679469 2.720663 0.709206 4.311478 1.172260 6.993548 -10.286810 -0.156507 -5.540884 12.665708 2.943137 -22.370604 5.762409 1.866625 -6.067188 0.000000 0.000000 0.000000 4.103226 33.449899 -25.995975 12.080702 -19.925112 2.130061 19.093053 -0.406856 -32.677869 0.000000 0.000000 0.000000 -7.125000 0.000000 0.000000 -16.286380 63.430721 7.380925 0.000000 0.000000 0.000000 -7.487079 -22.267164 5.240129 -51.135114 -53.435767 -27.085204 -30.387046 -45.840313 -32.732919 0.000000 0.000000 0.000000 7.125000 0.000000 0.000000 0.951873 -6.708405 1.055975
